<?xml version="1.0" standalone="no"?>
<!DOCTYPE svg PUBLIC "-//W3C//DTD SVG 20010904//EN"
 "http://www.w3.org/TR/2001/REC-SVG-20010904/DTD/svg10.dtd">
<svg version="1.0" xmlns="http://www.w3.org/2000/svg"
 width="728.000000pt" height="728.000000pt" viewBox="0 0 728.000000 728.000000"
 preserveAspectRatio="xMidYMid meet">
<metadata>
Created by potrace 1.14, written by Peter Selinger 2001-2017
</metadata>
<g transform="translate(0.000000,728.000000) scale(0.100000,-0.100000)"
fill="#000000" stroke="none">
<path d="M3420 7257 c-3 -2 -54 -7 -115 -11 -133 -7 -365 -46 -530 -87 -428
-108 -812 -283 -1195 -544 -212 -144 -305 -220 -476 -390 -163 -162 -271 -285
-369 -419 -27 -37 -65 -85 -82 -106 -18 -20 -33 -40 -33 -43 0 -3 -33 -59 -73
-124 -114 -183 -204 -361 -317 -628 -85 -200 -187 -591 -205 -790 -4 -38 -11
-104 -16 -145 -9 -77 -5 -625 4 -670 3 -14 11 -70 17 -125 14 -122 44 -284 72
-385 63 -233 109 -368 159 -476 16 -34 29 -65 29 -68 0 -7 65 -138 137 -276
56 -109 162 -286 205 -345 193 -265 328 -423 515 -606 79 -78 222 -205 278
-247 326 -244 569 -378 980 -538 71 -27 252 -87 270 -89 6 -1 28 -7 50 -13 22
-6 51 -13 65 -16 14 -2 25 -5 25 -6 0 -1 9 -3 20 -4 11 -1 54 -10 95 -19 65
-14 197 -36 310 -51 206 -29 773 -29 930 -1 30 6 72 12 125 20 22 4 58 10 80
15 22 5 56 12 75 15 19 3 44 9 55 12 11 4 27 8 35 8 8 1 22 4 30 7 8 3 49 15
90 27 88 26 90 26 110 33 184 66 256 93 260 97 3 3 12 8 20 10 45 12 80 27 80
33 0 5 8 8 19 8 10 0 24 7 31 15 7 8 18 15 26 15 7 0 36 13 64 30 27 16 50 26
50 22 0 -4 4 -2 8 4 4 6 48 32 97 59 50 26 113 62 140 80 28 18 74 47 103 65
28 18 52 37 52 42 0 4 4 7 9 6 5 -2 23 9 40 25 17 15 34 27 39 27 4 0 26 16
47 36 21 19 43 36 48 37 5 1 27 18 48 37 21 19 65 60 99 90 34 30 85 78 113
105 28 28 55 49 60 47 5 -1 6 1 3 6 -2 4 14 26 37 49 39 38 100 106 158 177
13 15 31 36 39 45 27 29 110 139 110 146 0 3 4 11 10 18 38 46 57 74 63 90 3
9 11 17 17 17 5 0 10 7 10 15 0 8 9 23 20 32 11 10 20 23 20 30 0 6 7 19 16
27 8 9 13 16 10 16 -4 0 6 18 20 40 15 22 31 40 36 40 5 0 7 4 3 9 -3 5 2 17
11 25 8 9 13 16 9 16 -4 0 3 12 14 26 12 15 21 32 21 39 0 7 7 18 15 25 9 7
13 15 11 17 -2 3 18 50 46 105 27 54 51 105 52 111 1 7 8 23 16 37 8 14 15 30
16 35 1 6 21 62 44 125 23 63 43 123 45 132 2 9 9 26 15 37 6 12 8 21 6 21 -3
0 -1 11 4 25 5 14 12 38 15 53 7 32 10 42 18 62 6 15 41 179 52 250 3 19 10
53 15 75 4 22 11 63 15 90 4 28 9 64 11 80 39 279 34 644 -12 988 -11 82 -47
263 -63 316 -6 19 -9 36 -7 39 3 2 -2 19 -10 38 -8 19 -12 34 -9 34 3 0 -1 14
-10 30 -9 17 -13 30 -10 30 3 0 -1 16 -9 35 -9 20 -15 39 -15 43 -1 9 -31 111
-41 137 -4 11 -17 47 -30 80 -23 62 -198 426 -209 435 -3 3 -14 21 -25 40 -20
37 -206 322 -216 330 -3 3 -33 39 -65 80 -33 41 -63 77 -67 78 -4 2 -8 8 -8
14 0 5 -15 25 -32 43 -18 19 -51 55 -73 82 -87 103 -313 316 -430 404 -38 29
-81 63 -95 76 -14 13 -28 23 -32 23 -3 0 -13 6 -20 13 -15 16 -151 108 -199
135 -19 11 -74 43 -124 72 -354 206 -687 327 -1105 404 -74 13 -162 28 -195
31 -33 4 -69 10 -80 12 -28 6 -629 16 -635 10z"/>
</g>
</svg>
